<svg width="20" height="20" viewBox="0 0 20 20" fill="none" xmlns="http://www.w3.org/2000/svg">
<path d="M5.83341 1.66666C7.31675 1.66666 8.05841 3.46666 7.01675 4.51666C5.96675 5.55833 4.16675 4.81666 4.16675 3.33333C4.16675 2.8913 4.34234 2.46738 4.6549 2.15482C4.96746 1.84226 5.39139 1.66666 5.83341 1.66666ZM4.58341 5.83333H7.08341C7.52544 5.83333 7.94937 6.00893 8.26193 6.32149C8.57449 6.63405 8.75008 7.05797 8.75008 7.5V12.0833H7.50008V18.3333H4.16675V12.0833H2.91675V7.5C2.91675 7.05797 3.09234 6.63405 3.4049 6.32149C3.71746 6.00893 4.14139 5.83333 4.58341 5.83333ZM17.5001 6.66666H12.5001V8.33333H17.5001M17.5001 9.16666H15.0001V10.8333H17.5001M17.5001 1.66666H12.5001V3.33333H17.5001M17.5001 4.16666H15.0001V5.83333H17.5001M17.5001 11.6667H12.5001V13.3333H17.5001M17.5001 16.6667H12.5001V18.3333H17.5001M17.5001 14.1667H15.0001V15.8333H17.5001" fill="#3C4048"/>
</svg>
