<svg width="20" height="20" viewBox="0 0 20 20" fill="none" xmlns="http://www.w3.org/2000/svg">
<path d="M15 6.875C15 9.63672 12.7617 11.875 10 11.875C7.23828 11.875 5 9.63672 5 6.875C5 4.11328 7.23828 1.875 10 1.875C12.7617 1.875 15 4.11328 15 6.875ZM15.3047 2.5C14.043 0.972656 12.1367 0 10 0C7.86328 0 5.95703 0.972656 4.69531 2.5H2.5C1.12109 2.5 0 3.62109 0 5V17.5C0 18.8789 1.12109 20 2.5 20H17.5C18.8789 20 20 18.8789 20 17.5V5C20 3.62109 18.8789 2.5 17.5 2.5H15.3047ZM11.5625 8.75C11.5625 8.33594 11.4023 7.96094 11.1367 7.67969L12.4492 4.62109C12.5859 4.30469 12.4375 3.9375 12.1211 3.80078C11.8047 3.66406 11.4375 3.8125 11.3008 4.12891L9.98828 7.1875C9.12891 7.19141 8.4375 7.89062 8.4375 8.75C8.4375 9.61328 9.13672 10.3125 10 10.3125C10.8633 10.3125 11.5625 9.61328 11.5625 8.75Z" fill="#3C4048"/>
</svg>
